# xmcd
#
# Track frame offsets:
#	150
#	12278
#	28882
#	43140
#	55910
#	83588
#	97166
#	111323
#	124550
#	152056
#	177325
#	191489
#	204790
#	232162
#	245803
#	258596
#	271581
#	296058
#	310808
#	324678
#
# Disc length: 4491 seconds
#
# Revision: 0
# Processed by: cddbd v1.5.2PL0 Copyright (c) Steve Scherf et al.
# Submitted via: audiograbber 1.83.01
#
DISCID=21118914
DTITLE=Charlie Kunz - Clap Hands, Here Comes...
DYEAR=1900
DGENRE=
TTITLE0=Clap Hands, Here Comes Charlie
TTITLE1=Sterne Medley
TTITLE2=Louisiana Fairy Tale
TTITLE3=Rex Medley R12
TTITLE4=Rex Medley R13
TTITLE5=Rex Medley R15
TTITLE6=Red Sails In The Sunset
TTITLE7=Rex Medley R21
TTITLE8=Top Hat Medley
TTITLE9=Rex Medley R23
TTITLE10=A Star Fell Out Of Heaven
TTITLE11=Follow The Fleet Medley
TTITLE12=Decca Medley D1
TTITLE13=It's Love Again Medley
TTITLE14=Decca Medley D2 (Part 2)
TTITLE15=I'm In A Dancing Mood
TTITLE16=Decca Medley D17
TTITLE17=Everything Is Rhythm Medley
TTITLE18=Decca Medley D40 (Part 1)
TTITLE19=Bon Noite (Good Night)
EXTD=
EXTT0=
EXTT1=
EXTT2=
EXTT3=
EXTT4=
EXTT5=
EXTT6=
EXTT7=
EXTT8=
EXTT9=
EXTT10=
EXTT11=
EXTT12=
EXTT13=
EXTT14=
EXTT15=
EXTT16=
EXTT17=
EXTT18=
EXTT19=
PLAYORDER=
